<svg id="svg" version="1.1" xmlns="http://www.w3.org/2000/svg" xmlns:xlink="http://www.w3.org/1999/xlink" width="400" height="402.5157232704402" viewBox="0, 0, 400,402.5157232704402"><g id="svgg"><path id="path0" d="M111.205 161.515 C 108.898 161.578,106.837 161.803,106.625 162.015 C 106.413 162.227,104.926 162.400,103.320 162.400 C 101.640 162.400,100.400 162.570,100.400 162.800 C 100.400 163.022,99.333 163.200,98.000 163.200 C 96.667 163.200,95.600 163.378,95.600 163.600 C 95.600 163.820,94.790 164.000,93.800 164.000 C 92.810 164.000,92.000 164.180,92.000 164.400 C 92.000 164.620,91.280 164.800,90.400 164.800 C 89.520 164.800,88.800 164.980,88.800 165.200 C 88.800 165.420,88.181 165.600,87.424 165.600 C 86.667 165.600,85.936 165.780,85.800 166.000 C 85.664 166.220,85.053 166.400,84.443 166.400 C 83.833 166.400,83.210 166.523,83.059 166.674 C 82.661 167.073,79.918 167.987,79.100 167.994 C 78.715 167.997,78.400 168.180,78.400 168.400 C 78.400 168.620,78.129 168.800,77.798 168.800 C 77.467 168.800,76.263 169.250,75.123 169.800 C 73.983 170.350,72.814 170.800,72.525 170.800 C 72.236 170.800,72.000 170.980,72.000 171.200 C 72.000 171.420,71.550 171.600,71.000 171.600 C 70.450 171.600,70.000 171.780,70.000 172.000 C 70.000 172.220,69.640 172.400,69.200 172.400 C 68.760 172.400,68.400 172.580,68.400 172.800 C 68.400 173.020,68.040 173.200,67.600 173.200 C 67.160 173.200,66.800 173.380,66.800 173.600 C 66.800 173.820,66.440 174.000,66.000 174.000 C 65.560 174.000,65.200 174.180,65.200 174.400 C 65.200 174.620,64.935 174.800,64.612 174.800 C 63.718 174.800,57.932 178.182,57.667 178.860 C 57.593 179.047,57.228 179.200,56.855 179.200 C 56.482 179.200,55.917 179.560,55.600 180.000 C 55.283 180.440,54.731 180.800,54.374 180.800 C 54.016 180.800,53.398 181.160,53.000 181.600 C 52.602 182.040,52.068 182.400,51.813 182.400 C 51.559 182.400,51.002 182.720,50.575 183.111 C 50.149 183.502,49.170 184.260,48.400 184.796 C 47.630 185.332,46.370 186.361,45.600 187.082 C 44.830 187.803,44.074 188.395,43.919 188.397 C 43.432 188.403,37.092 194.558,31.000 200.938 C 30.120 201.860,28.868 203.331,28.217 204.207 C 27.566 205.083,26.531 206.277,25.917 206.860 C 25.303 207.444,24.800 208.074,24.799 208.260 C 24.799 208.447,24.259 209.230,23.600 210.000 C 22.941 210.770,22.401 211.625,22.401 211.900 C 22.400 212.175,22.253 212.400,22.074 212.400 C 21.894 212.400,21.319 213.165,20.796 214.100 C 20.273 215.035,19.655 216.019,19.422 216.286 C 18.372 217.495,18.120 217.880,17.580 219.100 C 17.264 219.815,16.869 220.400,16.702 220.400 C 16.536 220.400,16.400 220.760,16.400 221.200 C 16.400 221.640,16.220 222.000,16.000 222.000 C 15.780 222.000,15.600 222.360,15.600 222.800 C 15.600 223.240,15.420 223.600,15.200 223.600 C 14.980 223.600,14.800 223.960,14.800 224.400 C 14.800 224.840,14.620 225.200,14.400 225.200 C 14.180 225.200,14.000 225.560,14.000 226.000 C 14.000 226.440,13.820 226.800,13.600 226.800 C 13.380 226.800,13.200 227.160,13.200 227.600 C 13.200 228.040,13.061 228.400,12.891 228.400 C 12.591 228.400,11.728 229.968,10.910 232.000 C 10.688 232.550,10.303 233.495,10.054 234.100 C 9.804 234.705,9.399 235.695,9.153 236.300 C 8.908 236.905,8.548 237.713,8.353 238.095 C 8.159 238.477,8.000 239.141,8.000 239.571 C 8.000 240.001,7.820 240.464,7.600 240.600 C 7.380 240.736,7.200 241.276,7.200 241.800 C 7.200 242.324,7.020 242.864,6.800 243.000 C 6.580 243.136,6.400 243.766,6.400 244.400 C 6.400 245.034,6.220 245.664,6.000 245.800 C 5.780 245.936,5.600 246.667,5.600 247.424 C 5.600 248.181,5.420 248.800,5.200 248.800 C 4.980 248.800,4.800 249.505,4.800 250.367 C 4.800 251.228,4.616 251.995,4.391 252.070 C 4.167 252.144,3.962 252.924,3.936 253.803 C 3.910 254.681,3.696 255.644,3.461 255.942 C 2.996 256.530,2.458 259.608,2.157 263.400 C 2.052 264.720,1.789 266.160,1.571 266.600 C 0.790 268.181,1.517 298.635,2.384 300.600 C 2.578 301.040,2.841 302.282,2.969 303.360 C 3.097 304.437,3.345 305.517,3.521 305.760 C 3.698 306.002,3.892 306.830,3.955 307.600 C 4.017 308.370,4.232 309.171,4.434 309.380 C 4.635 309.589,4.800 310.444,4.800 311.280 C 4.800 312.116,4.980 312.800,5.200 312.800 C 5.420 312.800,5.600 313.430,5.600 314.200 C 5.600 314.970,5.780 315.600,6.000 315.600 C 6.220 315.600,6.400 316.140,6.400 316.800 C 6.400 317.460,6.580 318.000,6.800 318.000 C 7.020 318.000,7.200 318.529,7.200 319.176 C 7.200 319.823,7.380 320.464,7.600 320.600 C 7.820 320.736,8.000 321.199,8.000 321.629 C 8.000 322.059,8.180 322.768,8.400 323.205 C 8.620 323.642,8.980 324.358,9.200 324.795 C 9.420 325.232,9.600 325.952,9.600 326.395 C 9.600 326.838,9.780 327.200,10.000 327.200 C 10.220 327.200,10.400 327.482,10.400 327.826 C 10.400 328.170,11.210 329.988,12.200 331.864 C 13.190 333.741,14.000 335.530,14.000 335.838 C 14.000 336.147,14.180 336.400,14.400 336.400 C 14.620 336.400,14.800 336.760,14.800 337.200 C 14.800 337.640,14.946 338.000,15.125 338.000 C 15.304 338.000,15.698 338.630,16.000 339.400 C 16.302 340.170,16.696 340.800,16.875 340.800 C 17.054 340.800,17.200 341.160,17.200 341.600 C 17.200 342.040,17.358 342.400,17.551 342.400 C 17.745 342.400,18.127 342.940,18.400 343.600 C 18.673 344.260,19.010 344.802,19.149 344.805 C 19.287 344.807,19.744 345.527,20.164 346.405 C 20.585 347.282,21.080 348.000,21.264 348.000 C 21.449 348.000,21.600 348.230,21.600 348.512 C 21.600 348.793,21.960 349.283,22.400 349.600 C 22.840 349.917,23.200 350.409,23.200 350.692 C 23.200 350.975,23.740 351.772,24.400 352.463 C 25.060 353.154,25.600 353.874,25.600 354.063 C 25.600 354.421,27.008 356.151,28.900 358.118 C 29.505 358.747,30.000 359.328,30.000 359.409 C 30.000 359.618,35.169 365.091,36.556 366.351 C 37.191 366.928,38.901 368.552,40.356 369.960 C 41.810 371.367,44.350 373.527,46.000 374.760 C 47.650 375.992,49.349 377.315,49.775 377.700 C 50.202 378.085,50.747 378.400,50.987 378.400 C 51.227 378.400,51.683 378.760,52.000 379.200 C 52.317 379.640,52.807 380.000,53.088 380.000 C 53.370 380.000,53.600 380.159,53.600 380.353 C 53.600 380.548,53.915 380.812,54.300 380.942 C 55.032 381.188,56.457 382.036,56.800 382.430 C 56.910 382.556,57.810 383.096,58.800 383.630 C 59.790 384.163,60.690 384.704,60.800 384.832 C 60.910 384.960,61.585 385.319,62.300 385.630 C 63.015 385.941,63.600 386.331,63.600 386.498 C 63.600 386.664,63.960 386.800,64.400 386.800 C 64.840 386.800,65.200 386.980,65.200 387.200 C 65.200 387.420,65.560 387.600,66.000 387.600 C 66.440 387.600,66.800 387.780,66.800 388.000 C 66.800 388.220,67.145 388.400,67.567 388.400 C 67.988 388.400,68.393 388.542,68.467 388.716 C 68.619 389.077,73.019 391.200,73.615 391.200 C 73.996 391.200,77.081 392.485,78.495 393.233 C 78.877 393.435,79.631 393.600,80.171 393.600 C 80.711 393.600,81.264 393.780,81.400 394.000 C 81.536 394.220,82.076 394.400,82.600 394.400 C 83.124 394.400,83.664 394.580,83.800 394.800 C 83.936 395.020,84.476 395.200,85.000 395.200 C 85.524 395.200,86.064 395.380,86.200 395.600 C 86.336 395.820,87.056 396.000,87.800 396.000 C 88.544 396.000,89.264 396.180,89.400 396.400 C 89.536 396.620,90.357 396.800,91.224 396.800 C 92.091 396.800,92.800 396.980,92.800 397.200 C 92.800 397.420,93.595 397.600,94.567 397.600 C 95.538 397.600,96.393 397.774,96.467 397.987 C 96.540 398.200,97.590 398.491,98.800 398.634 C 100.010 398.777,101.270 399.026,101.600 399.186 C 102.916 399.827,106.814 399.703,106.556 399.029 C 106.387 398.589,105.786 398.400,104.557 398.400 C 103.591 398.400,102.800 398.220,102.800 398.000 C 102.800 397.780,102.385 397.600,101.879 397.600 C 101.042 397.600,93.328 395.266,91.400 394.429 C 88.084 392.990,87.053 392.515,84.400 391.208 C 79.562 388.823,75.670 386.329,70.652 382.400 C 59.253 373.474,49.605 359.711,44.995 345.800 C 43.412 341.022,42.639 337.669,41.540 330.800 C 40.917 326.909,40.921 313.404,41.546 309.800 C 41.813 308.260,42.224 305.920,42.461 304.600 C 44.465 293.396,51.220 278.986,58.423 270.546 C 62.878 265.327,64.093 264.073,67.883 260.784 C 78.190 251.840,91.281 245.215,103.400 242.810 C 104.720 242.548,106.599 242.158,107.576 241.942 C 108.553 241.727,111.084 241.593,113.201 241.645 C 115.317 241.698,117.251 241.616,117.497 241.464 C 117.743 241.311,118.058 241.370,118.196 241.593 C 118.542 242.153,274.654 242.160,275.000 241.600 C 275.136 241.380,275.652 241.200,276.147 241.200 C 276.642 241.200,277.396 240.936,277.824 240.613 C 278.251 240.290,279.005 240.020,279.500 240.013 C 279.995 240.006,280.400 239.832,280.400 239.627 C 280.400 239.422,280.739 239.146,281.152 239.015 C 282.615 238.551,286.952 234.408,287.667 232.793 C 287.958 232.137,288.331 231.600,288.498 231.600 C 288.664 231.600,288.800 231.240,288.800 230.800 C 288.800 230.360,288.980 230.000,289.200 230.000 C 289.420 230.000,289.600 229.550,289.600 229.000 C 289.600 228.450,289.780 228.000,290.000 228.000 C 290.220 228.000,290.400 227.201,290.400 226.224 C 290.400 225.247,290.580 224.336,290.800 224.200 C 291.351 223.859,291.351 179.200,290.800 179.200 C 290.580 179.200,290.400 178.311,290.400 177.224 C 290.400 176.137,290.220 175.136,290.000 175.000 C 289.780 174.864,289.600 174.403,289.600 173.976 C 289.600 173.549,289.420 173.200,289.200 173.200 C 288.980 173.200,288.800 172.840,288.800 172.400 C 288.800 171.960,288.620 171.600,288.400 171.600 C 288.180 171.600,288.000 171.332,288.000 171.005 C 288.000 169.785,282.137 164.002,280.900 164.000 C 280.625 164.000,280.400 163.820,280.400 163.600 C 280.400 163.380,280.051 163.200,279.624 163.200 C 279.197 163.200,278.736 163.020,278.600 162.800 C 278.464 162.580,277.949 162.400,277.456 162.400 C 276.963 162.400,276.378 162.218,276.156 161.996 C 275.791 161.631,123.198 161.186,111.205 161.515 M338.700 320.300 C 349.755 320.359,367.845 320.359,378.900 320.300 C 389.955 320.241,380.910 320.192,358.800 320.192 C 336.690 320.192,327.645 320.241,338.700 320.300 M108.607 399.588 C 108.475 399.802,108.833 400.093,109.402 400.236 C 110.544 400.523,111.022 400.283,110.616 399.627 C 110.287 399.093,108.929 399.068,108.607 399.588 " stroke="none" fill="#fc9c24" fill-rule="evenodd"></path><path id="path1" d="M96.202 2.396 C 96.065 2.618,95.451 2.800,94.838 2.800 C 93.579 2.800,91.200 3.866,91.200 4.429 C 91.200 4.633,90.822 4.800,90.360 4.800 C 89.899 4.800,89.017 5.340,88.400 6.000 C 87.783 6.660,87.068 7.200,86.811 7.200 C 86.207 7.200,85.200 8.207,85.200 8.811 C 85.200 9.068,84.660 9.783,84.000 10.400 C 83.340 11.017,82.800 11.904,82.800 12.373 C 82.800 12.842,82.568 13.314,82.284 13.423 C 82.001 13.532,81.740 14.005,81.704 14.474 C 81.669 14.944,81.496 15.434,81.320 15.564 C 81.144 15.694,80.939 16.250,80.865 16.800 C 80.791 17.350,80.566 17.971,80.365 18.180 C 79.859 18.707,79.880 67.492,80.387 67.667 C 80.600 67.740,80.820 68.399,80.875 69.130 C 80.930 69.862,81.115 70.548,81.287 70.654 C 81.459 70.760,81.600 71.197,81.600 71.624 C 81.600 72.051,81.870 72.400,82.200 72.400 C 82.533 72.400,82.800 72.756,82.800 73.200 C 82.800 73.640,82.980 74.000,83.200 74.000 C 83.420 74.000,83.600 74.270,83.600 74.600 C 83.600 74.930,83.780 75.200,84.000 75.200 C 84.220 75.200,84.400 75.470,84.400 75.800 C 84.400 76.130,84.550 76.400,84.732 76.400 C 84.915 76.400,85.306 76.850,85.600 77.400 C 85.894 77.950,86.385 78.400,86.691 78.400 C 86.997 78.400,87.136 78.580,87.000 78.800 C 86.864 79.020,87.044 79.200,87.400 79.200 C 87.756 79.200,87.936 79.380,87.800 79.600 C 87.664 79.820,87.841 80.000,88.193 80.000 C 88.545 80.000,89.220 80.360,89.692 80.800 C 90.164 81.240,91.057 81.600,91.675 81.600 C 92.294 81.600,92.800 81.780,92.800 82.000 C 92.800 82.220,93.083 82.400,93.429 82.400 C 93.774 82.400,94.336 82.678,94.676 83.019 C 95.231 83.574,103.560 83.633,174.947 83.593 C 229.466 83.562,255.610 83.683,257.800 83.976 C 273.382 86.058,288.319 89.986,300.000 95.072 C 300.770 95.407,301.760 95.826,302.200 96.003 C 310.587 99.374,326.399 108.588,334.434 114.785 C 335.443 115.563,336.973 116.740,337.834 117.400 C 338.696 118.060,339.940 119.101,340.600 119.714 C 341.260 120.326,342.554 121.406,343.476 122.114 C 347.636 125.307,359.638 138.021,364.715 144.613 C 373.606 156.158,380.381 167.797,385.778 180.800 C 386.828 183.330,387.841 185.760,388.028 186.200 C 388.487 187.276,391.216 195.494,391.615 197.000 C 394.437 207.657,395.396 212.067,396.442 219.200 C 397.115 223.790,397.936 230.975,397.986 232.700 C 397.994 232.975,398.182 233.200,398.404 233.200 C 398.953 233.200,398.943 149.335,398.393 148.996 C 398.177 148.862,398.000 147.053,398.000 144.976 C 398.000 142.725,397.838 141.200,397.600 141.200 C 397.372 141.200,397.200 140.011,397.200 138.433 C 397.200 136.912,397.030 135.607,396.822 135.533 C 396.614 135.460,396.402 134.450,396.350 133.289 C 396.298 132.128,396.018 130.981,395.728 130.740 C 395.438 130.499,395.200 129.604,395.200 128.751 C 395.200 127.898,395.020 127.200,394.800 127.200 C 394.580 127.200,394.400 126.199,394.400 124.976 C 394.400 123.596,394.248 122.847,394.000 123.000 C 393.759 123.149,393.600 122.612,393.600 121.647 C 393.600 120.767,393.420 119.936,393.200 119.800 C 392.980 119.664,392.800 119.034,392.800 118.400 C 392.800 117.766,392.620 117.136,392.400 117.000 C 392.180 116.864,392.000 116.223,392.000 115.576 C 392.000 114.929,391.820 114.400,391.600 114.400 C 391.380 114.400,391.200 113.680,391.200 112.800 C 391.200 111.920,391.020 111.200,390.800 111.200 C 390.580 111.200,390.400 110.840,390.400 110.400 C 390.400 109.960,390.220 109.600,390.000 109.600 C 389.780 109.600,389.600 108.970,389.600 108.200 C 389.600 107.430,389.420 106.800,389.200 106.800 C 388.980 106.800,388.800 106.337,388.800 105.771 C 388.800 105.206,388.538 104.481,388.217 104.160 C 387.896 103.839,387.735 103.314,387.858 102.992 C 387.984 102.664,387.801 102.299,387.444 102.161 C 387.092 102.027,386.911 101.744,387.041 101.533 C 387.172 101.322,387.036 100.846,386.739 100.475 C 385.733 99.216,385.200 98.014,385.200 97.005 C 385.200 96.452,385.020 96.000,384.800 96.000 C 384.580 96.000,384.400 95.640,384.400 95.200 C 384.400 94.760,384.220 94.400,384.000 94.400 C 383.780 94.400,383.600 94.040,383.600 93.600 C 383.600 93.160,383.420 92.800,383.200 92.800 C 382.980 92.800,382.796 92.485,382.791 92.100 C 382.786 91.715,382.430 90.950,382.000 90.400 C 381.570 89.850,381.208 89.130,381.196 88.800 C 381.184 88.470,380.916 87.858,380.600 87.441 C 380.284 87.024,380.109 86.548,380.211 86.383 C 380.312 86.218,380.115 85.976,379.772 85.845 C 379.430 85.713,379.252 85.439,379.378 85.235 C 379.504 85.031,379.156 84.509,378.604 84.074 C 378.052 83.640,377.600 82.906,377.600 82.442 C 377.600 81.979,377.420 81.600,377.200 81.600 C 376.980 81.600,376.800 81.240,376.800 80.800 C 376.800 80.360,376.620 80.000,376.400 80.000 C 376.180 80.000,376.000 79.680,376.000 79.288 C 376.000 78.897,375.640 78.317,375.200 78.000 C 374.760 77.683,374.400 77.227,374.400 76.987 C 374.400 76.747,374.084 76.202,373.697 75.775 C 373.311 75.349,372.771 74.498,372.499 73.885 C 371.978 72.712,371.572 72.146,370.100 70.544 C 369.605 70.005,369.200 69.386,369.200 69.168 C 369.200 68.951,368.566 68.139,367.791 67.364 C 367.015 66.589,366.486 65.785,366.614 65.577 C 366.742 65.370,366.657 65.200,366.424 65.200 C 366.191 65.200,366.000 64.919,366.000 64.576 C 366.000 64.233,365.820 64.064,365.600 64.200 C 365.380 64.336,365.200 64.167,365.200 63.824 C 365.200 63.481,365.020 63.200,364.800 63.200 C 364.580 63.200,364.400 62.947,364.400 62.637 C 364.400 61.983,361.030 58.400,360.415 58.400 C 360.187 58.400,360.000 58.040,360.000 57.600 C 360.000 57.142,359.733 56.800,359.376 56.800 C 359.033 56.800,358.844 56.652,358.957 56.470 C 359.146 56.164,352.634 49.200,352.158 49.200 C 351.900 49.200,350.800 48.132,350.800 47.880 C 350.800 47.530,345.487 42.400,345.125 42.400 C 344.920 42.400,344.864 42.220,345.000 42.000 C 345.136 41.780,344.967 41.600,344.624 41.600 C 344.281 41.600,344.000 41.420,344.000 41.200 C 344.000 40.980,343.717 40.800,343.371 40.800 C 342.767 40.800,341.600 39.898,341.600 39.432 C 341.600 39.104,339.134 36.800,338.783 36.800 C 338.619 36.800,337.916 36.269,337.222 35.620 C 336.527 34.972,335.587 34.323,335.132 34.178 C 334.677 34.034,333.759 33.395,333.093 32.758 C 332.427 32.121,331.681 31.600,331.436 31.600 C 331.190 31.600,330.652 31.150,330.239 30.600 C 329.826 30.050,329.253 29.600,328.967 29.600 C 328.680 29.600,328.210 29.285,327.923 28.900 C 327.635 28.515,327.047 28.138,326.615 28.063 C 326.183 27.987,325.532 27.582,325.168 27.163 C 324.804 26.743,324.252 26.400,323.941 26.400 C 323.631 26.400,323.117 26.040,322.800 25.600 C 322.483 25.160,321.903 24.800,321.512 24.800 C 321.120 24.800,320.800 24.620,320.800 24.400 C 320.800 24.180,320.522 24.000,320.183 24.000 C 319.844 24.000,319.180 23.640,318.708 23.200 C 318.236 22.760,317.542 22.400,317.167 22.400 C 316.792 22.400,316.382 22.130,316.255 21.800 C 316.129 21.470,315.749 21.200,315.413 21.200 C 315.076 21.200,314.800 21.020,314.800 20.800 C 314.800 20.580,314.548 20.400,314.241 20.400 C 313.933 20.400,312.655 19.860,311.400 19.200 C 310.145 18.540,308.867 18.000,308.559 18.000 C 308.252 18.000,308.000 17.820,308.000 17.600 C 308.000 17.380,307.640 17.200,307.200 17.200 C 306.760 17.200,306.400 17.020,306.400 16.800 C 306.400 16.580,306.051 16.400,305.624 16.400 C 305.197 16.400,304.736 16.220,304.600 16.000 C 304.464 15.780,304.003 15.600,303.576 15.600 C 303.149 15.600,302.800 15.420,302.800 15.200 C 302.800 14.980,302.350 14.800,301.800 14.800 C 301.250 14.800,300.800 14.620,300.800 14.400 C 300.800 14.180,300.427 14.000,299.971 14.000 C 299.516 14.000,298.873 13.730,298.543 13.400 C 298.213 13.070,297.596 12.800,297.171 12.800 C 296.747 12.800,296.400 12.609,296.400 12.376 C 296.400 12.143,296.247 12.048,296.059 12.164 C 295.871 12.280,295.376 12.116,294.959 11.800 C 294.542 11.484,293.716 11.220,293.124 11.213 C 292.532 11.206,291.936 11.020,291.800 10.800 C 291.664 10.580,291.113 10.400,290.576 10.400 C 290.039 10.400,289.600 10.220,289.600 10.000 C 289.600 9.780,289.060 9.600,288.400 9.600 C 287.740 9.600,287.200 9.420,287.200 9.200 C 287.200 8.980,286.671 8.800,286.024 8.800 C 285.377 8.800,284.736 8.620,284.600 8.400 C 284.464 8.180,283.643 8.000,282.776 8.000 C 281.909 8.000,281.200 7.820,281.200 7.600 C 281.200 7.380,280.480 7.200,279.600 7.200 C 278.720 7.200,278.000 7.020,278.000 6.800 C 278.000 6.580,277.190 6.400,276.200 6.400 C 275.210 6.400,274.400 6.220,274.400 6.000 C 274.400 5.780,273.500 5.600,272.400 5.600 C 271.300 5.600,270.400 5.420,270.400 5.200 C 270.400 4.980,269.410 4.800,268.200 4.800 C 266.653 4.800,266.030 4.652,266.100 4.300 C 266.171 3.946,265.384 3.770,263.400 3.696 C 261.860 3.639,260.540 3.414,260.467 3.196 C 260.391 2.970,258.621 2.800,256.343 2.800 C 253.837 2.800,252.443 2.654,252.595 2.408 C 252.753 2.152,225.648 2.011,174.645 2.004 C 122.452 1.996,96.369 2.127,96.202 2.396 " stroke="none" fill="#fcdb2c" fill-rule="evenodd"></path><path id="path2" d="M107.000 242.053 C 106.120 242.257,104.410 242.618,103.200 242.855 C 91.366 245.176,78.120 251.900,67.883 260.784 C 64.093 264.073,62.878 265.327,58.423 270.546 C 51.220 278.986,44.465 293.396,42.461 304.600 C 42.224 305.920,41.813 308.260,41.546 309.800 C 40.921 313.404,40.917 326.909,41.540 330.800 C 43.560 343.418,46.040 350.593,51.967 360.969 C 56.041 368.099,63.897 377.110,70.652 382.400 C 75.670 386.329,79.562 388.823,84.400 391.208 C 87.053 392.515,88.084 392.990,91.400 394.429 C 93.328 395.266,101.042 397.600,101.879 397.600 C 102.385 397.600,102.800 397.780,102.800 398.000 C 102.800 398.220,103.610 398.400,104.600 398.400 C 105.590 398.400,106.400 398.567,106.400 398.771 C 106.400 399.213,108.841 400.492,109.132 400.202 C 109.243 400.091,109.113 400.000,108.843 400.000 C 108.573 400.000,108.464 399.820,108.600 399.600 C 108.979 398.987,110.396 399.125,110.655 399.800 C 110.859 400.331,122.783 400.400,214.641 400.400 L 318.396 400.400 318.498 360.700 L 318.600 321.000 358.800 320.800 L 399.000 320.600 338.834 320.300 C 305.742 320.135,242.427 320.000,198.134 320.000 C 151.791 320.000,117.600 319.850,117.600 319.647 C 117.600 319.452,116.385 319.165,114.900 319.007 C 113.415 318.850,112.020 318.574,111.800 318.395 C 111.340 318.019,111.231 318.000,109.576 318.000 C 108.753 318.000,108.446 317.849,108.638 317.538 C 108.796 317.282,108.750 317.184,108.533 317.318 C 108.318 317.450,107.640 317.298,107.026 316.980 C 106.411 316.661,105.695 316.400,105.434 316.400 C 104.734 316.400,102.807 315.448,102.803 315.100 C 102.801 314.935,102.522 314.800,102.183 314.800 C 101.844 314.800,101.180 314.440,100.708 314.000 C 100.236 313.560,99.616 313.200,99.331 313.200 C 98.870 313.200,97.934 312.482,95.593 310.333 C 95.193 309.967,94.762 309.772,94.633 309.900 C 94.505 310.028,94.400 309.949,94.400 309.725 C 94.400 309.500,93.635 308.496,92.700 307.494 C 89.744 304.324,88.400 302.643,88.400 302.114 C 88.400 301.831,88.220 301.600,88.000 301.600 C 87.780 301.600,87.600 301.240,87.600 300.800 C 87.600 300.360,87.450 300.000,87.268 300.000 C 87.085 300.000,86.743 299.595,86.507 299.100 C 85.452 296.880,84.469 294.473,84.014 293.000 C 83.742 292.120,83.268 290.890,82.960 290.268 C 82.652 289.645,82.400 288.260,82.400 287.191 C 82.400 286.122,82.220 285.136,82.000 285.000 C 81.773 284.860,81.600 282.870,81.600 280.400 C 81.600 277.930,81.773 275.940,82.000 275.800 C 82.220 275.664,82.400 274.697,82.400 273.652 C 82.400 272.606,82.735 271.041,83.145 270.175 C 83.555 269.309,84.219 267.520,84.620 266.200 C 85.022 264.880,85.452 263.710,85.576 263.600 C 85.700 263.490,86.065 262.860,86.388 262.200 C 86.711 261.540,87.476 260.248,88.088 259.328 C 88.699 258.408,89.200 257.554,89.200 257.430 C 89.200 257.305,90.820 255.582,92.800 253.600 C 94.780 251.618,96.400 250.087,96.400 250.198 C 96.400 250.309,96.733 250.085,97.140 249.700 C 98.498 248.415,99.605 247.600,99.992 247.600 C 100.203 247.600,101.017 247.240,101.800 246.800 C 102.583 246.360,103.499 246.000,103.836 246.000 C 104.172 246.000,104.336 245.820,104.200 245.600 C 104.060 245.373,104.396 245.200,104.976 245.200 C 105.539 245.200,106.000 245.020,106.000 244.800 C 106.000 244.580,106.439 244.400,106.976 244.400 C 107.513 244.400,108.064 244.220,108.200 244.000 C 108.336 243.780,108.966 243.600,109.600 243.600 C 110.234 243.600,110.864 243.420,111.000 243.200 C 111.136 242.980,112.317 242.800,113.624 242.800 C 115.469 242.800,116.000 242.666,116.000 242.200 C 116.000 241.500,109.824 241.399,107.000 242.053 " stroke="none" fill="#f46c24" fill-rule="evenodd"></path><path id="path3" d="M93.798 252.402 C 92.758 253.551,93.220 253.680,94.314 252.546 C 94.817 252.026,95.070 251.600,94.876 251.600 C 94.682 251.600,94.197 251.961,93.798 252.402 M318.667 321.067 C 318.520 321.213,318.400 339.123,318.400 360.867 L 318.400 400.400 351.000 400.400 C 372.467 400.400,383.600 400.263,383.600 400.000 C 383.600 399.780,384.140 399.600,384.800 399.600 C 385.460 399.600,386.000 399.420,386.000 399.200 C 386.000 398.980,386.442 398.800,386.982 398.800 C 387.522 398.800,388.414 398.350,388.964 397.800 C 389.514 397.250,390.156 396.800,390.391 396.800 C 391.051 396.800,395.200 392.494,395.200 391.809 C 395.200 391.474,395.367 391.200,395.571 391.200 C 395.998 391.200,397.200 388.941,397.200 388.139 C 397.200 387.842,397.380 387.600,397.600 387.600 C 397.820 387.600,398.000 387.060,398.000 386.400 C 398.000 385.740,398.180 385.200,398.400 385.200 C 398.663 385.200,398.800 374.200,398.800 353.000 L 398.800 320.800 358.867 320.800 C 336.903 320.800,318.813 320.920,318.667 321.067 " stroke="none" fill="#ec3424" fill-rule="evenodd"></path><path id="path4" d="M241.514 83.674 C 241.792 83.952,243.602 84.207,245.894 84.290 C 248.042 84.369,250.070 84.540,250.400 84.671 C 250.730 84.802,251.876 84.971,252.947 85.045 C 254.018 85.120,255.098 85.341,255.347 85.538 C 255.596 85.734,256.412 85.907,257.161 85.922 C 257.909 85.938,258.629 86.097,258.761 86.276 C 258.892 86.456,259.540 86.664,260.200 86.739 C 260.860 86.814,261.460 87.039,261.533 87.238 C 261.607 87.437,262.192 87.600,262.833 87.600 C 263.475 87.600,264.000 87.780,264.000 88.000 C 264.000 88.220,264.540 88.400,265.200 88.400 C 265.860 88.400,266.400 88.580,266.400 88.800 C 266.400 89.020,266.839 89.200,267.376 89.200 C 267.913 89.200,268.464 89.380,268.600 89.600 C 268.736 89.820,269.197 90.000,269.624 90.000 C 270.051 90.000,270.400 90.180,270.400 90.400 C 270.400 90.620,270.749 90.800,271.176 90.800 C 271.603 90.800,272.064 90.980,272.200 91.200 C 272.336 91.420,272.753 91.600,273.128 91.600 C 273.502 91.600,274.256 92.005,274.804 92.500 C 275.352 92.995,276.160 93.461,276.600 93.537 C 277.040 93.612,277.460 93.837,277.533 94.037 C 277.607 94.236,277.865 94.400,278.108 94.400 C 278.350 94.400,278.920 94.731,279.374 95.135 C 279.828 95.540,280.830 96.116,281.600 96.416 C 282.370 96.716,283.477 97.466,284.060 98.081 C 284.644 98.696,285.327 99.200,285.579 99.200 C 285.830 99.200,286.451 99.605,286.957 100.100 C 288.674 101.779,290.400 103.207,290.400 102.950 C 290.400 102.808,292.200 104.523,294.400 106.761 C 296.600 108.998,298.400 110.925,298.400 111.043 C 298.400 111.474,299.512 112.355,299.752 112.114 C 299.889 111.978,300.000 112.267,300.000 112.757 C 300.000 113.249,300.179 113.537,300.400 113.400 C 300.620 113.264,300.800 113.394,300.800 113.688 C 300.800 113.983,301.160 114.483,301.600 114.800 C 302.040 115.117,302.400 115.657,302.400 116.000 C 302.400 116.343,302.760 116.883,303.200 117.200 C 303.640 117.517,304.000 118.057,304.000 118.400 C 304.000 118.743,304.360 119.283,304.800 119.600 C 305.240 119.917,305.600 120.394,305.600 120.660 C 305.600 120.925,305.876 121.419,306.214 121.757 C 306.552 122.095,306.829 122.513,306.829 122.686 C 306.829 122.859,307.138 123.373,307.515 123.828 C 307.892 124.283,308.259 124.913,308.330 125.228 C 308.402 125.543,308.627 125.860,308.830 125.933 C 309.034 126.007,309.200 126.412,309.200 126.833 C 309.200 127.255,309.380 127.600,309.600 127.600 C 309.820 127.600,310.000 128.050,310.000 128.600 C 310.000 129.150,310.180 129.600,310.400 129.600 C 310.620 129.600,310.800 129.960,310.800 130.400 C 310.800 130.840,310.980 131.200,311.200 131.200 C 311.420 131.200,311.600 131.549,311.600 131.976 C 311.600 132.403,311.780 132.864,312.000 133.000 C 312.220 133.136,312.400 133.687,312.400 134.224 C 312.400 134.761,312.551 135.200,312.736 135.200 C 312.921 135.200,313.311 136.235,313.603 137.500 C 313.895 138.765,314.282 139.997,314.464 140.237 C 314.645 140.477,314.851 141.205,314.922 141.855 C 314.993 142.505,315.177 143.239,315.330 143.487 C 315.746 144.160,316.491 148.014,316.493 149.500 C 316.494 150.215,316.647 150.800,316.835 150.800 C 317.022 150.800,317.071 151.070,316.945 151.400 C 316.818 151.730,316.914 152.000,317.157 152.000 C 317.480 152.000,317.600 174.854,317.600 236.000 L 317.600 320.000 358.200 320.000 L 398.800 320.000 398.800 276.633 C 398.800 248.693,398.661 233.219,398.408 233.133 C 398.193 233.060,397.840 231.110,397.624 228.800 C 396.629 218.143,395.173 210.435,391.615 197.000 C 391.216 195.494,388.487 187.276,388.028 186.200 C 387.841 185.760,386.828 183.330,385.778 180.800 C 380.381 167.797,373.606 156.158,364.715 144.613 C 359.638 138.021,347.636 125.307,343.476 122.114 C 342.554 121.406,341.260 120.326,340.600 119.714 C 339.940 119.101,338.696 118.060,337.834 117.400 C 336.973 116.740,335.443 115.563,334.434 114.785 C 326.399 108.588,310.587 99.374,302.200 96.003 C 301.760 95.826,300.770 95.407,300.000 95.072 C 284.322 88.246,261.259 83.200,245.736 83.200 C 242.115 83.200,241.149 83.309,241.514 83.674 M109.700 161.476 C 110.085 161.576,110.715 161.576,111.100 161.476 C 111.485 161.375,111.170 161.293,110.400 161.293 C 109.630 161.293,109.315 161.375,109.700 161.476 M113.105 161.483 C 113.602 161.579,114.322 161.575,114.705 161.475 C 115.087 161.375,114.680 161.296,113.800 161.301 C 112.920 161.305,112.607 161.387,113.105 161.483 M155.300 161.500 C 176.585 161.557,211.415 161.557,232.700 161.500 C 253.985 161.443,236.570 161.396,194.000 161.396 C 151.430 161.396,134.015 161.443,155.300 161.500 M291.387 201.600 C 291.387 213.590,291.438 218.495,291.500 212.500 C 291.562 206.505,291.562 196.695,291.500 190.700 C 291.438 184.705,291.387 189.610,291.387 201.600 " stroke="none" fill="#fcb424" fill-rule="evenodd"></path></g></svg>