<?xml version="1.0" encoding="utf-8"?>
<!-- Generator: Adobe Illustrator 25.1.0, SVG Export Plug-In . SVG Version: 6.00 Build 0)  -->
<svg version="1.1" id="OutLine" xmlns="http://www.w3.org/2000/svg" xmlns:xlink="http://www.w3.org/1999/xlink" x="0px" y="0px"
	 viewBox="0 0 512 512" style="enable-background:new 0 0 512 512;" xml:space="preserve">
<style type="text/css">
	.st0{fill:#FFFFFF;}
</style>
<path class="st0" d="M349.7,18.3c-1.5-1.5-3.5-2.3-5.7-2.3H120c-30.9,0-56,25.1-56,56v368c0,30.9,25.1,56,56,56h272
	c30.9,0,56-25.1,56-56V120c0-2.1-0.8-4.2-2.3-5.7L349.7,18.3z M352,43.3l68.7,68.7H392c-22.1,0-40-17.9-40-40V43.3z M120,32h216v40
	c0,30.9,25.1,56,56,56h40v224H80V72C80,49.9,97.9,32,120,32z M392,480H120c-22.1,0-40-17.9-40-40v-72h352v72
	C432,462.1,414.1,480,392,480z"/>
<path class="st0" d="M168,384c-4.4,0-8,3.6-8,8v64c0,4.4,3.6,8,8,8c22.1,0,40-17.9,40-40S190.1,384,168,384z M176,446.6v-45.3
	c12.5,4.4,19,18.1,14.6,30.6C188.2,438.8,182.8,444.2,176,446.6z"/>
<path class="st0" d="M360,416h-16c-4.4,0-8,3.6-8,8s3.6,8,8,8h7c-2.3,9.2-8.2,16-15,16c-8.7,0-16-11-16-24s7.3-24,16-24
	c1.6,0,3.2,0.4,4.6,1.1c4,1.9,8.8,0.2,10.6-3.8s0.2-8.8-3.8-10.6c-3.6-1.7-7.5-2.6-11.4-2.6c-17.6,0-32,17.9-32,40s14.4,40,32,40
	s32-17.9,32-40C368,419.6,364.4,416,360,416z"/>
<path class="st0" d="M281,384.1c-4.4-0.5-8.4,2.6-8.9,6.9l-3.6,29l-4.8-14.5c-1.4-4.2-5.9-6.5-10.1-5.1c-2.4,0.8-4.3,2.7-5.1,5.1
	l-4.8,14.5l-3.6-29c-0.5-4.4-4.5-7.5-8.9-7s-7.5,4.5-7,8.9c0,0,0,0.1,0,0.1l8,64c0.5,4.4,4.5,7.5,8.9,6.9c3.1-0.4,5.6-2.5,6.6-5.4
	l8.4-25.2l8.4,25.2c1.1,3.3,4.1,5.5,7.6,5.5c0.3,0,0.5,0,0.8,0c3.7-0.4,6.7-3.3,7.1-7l8-64C288.5,388.6,285.4,384.6,281,384.1
	C281,384.1,281,384.1,281,384.1z"/>
<circle class="st0" cx="256" cy="208" r="8"/>
<path class="st0" d="M168,216h48v24c0,4.4,3.6,8,8,8h24v48c0,4.4,3.6,8,8,8s8-3.6,8-8v-48h24c4.4,0,8-3.6,8-8v-24h48
	c4.4,0,8-3.6,8-8s-3.6-8-8-8h-48v-24c0-4.4-3.6-8-8-8h-24v-48c0-4.4-3.6-8-8-8s-8,3.6-8,8v48h-24c-4.4,0-8,3.6-8,8v24h-48
	c-4.4,0-8,3.6-8,8S163.6,216,168,216z M232,184h48v48h-48V184z"/>
</svg>
