<svg xmlns="http://www.w3.org/2000/svg" width="100" height="100" viewBox="0 0 122 122"><style>.a{fill:#fff;}</style><rect x="0.5" y="0.5" width="121" height="121" fill="#f2a140"/><g opacity="0.1"><rect x="1.5" y="1.5" width="121" height="121" fill="url(#_Linear1)"/></g><path d="M24.3 89.1l0-64.3 41 0 0 11.3 -28 0 0 18.9 22.9 0 0 11.3 -22.9 0 0 22.7 -13 0Z" class="a"/><path d="M80.2 65.8l8 0c5 0 7.5-3.1 7.5-9.3 0-3-0.6-5.2-1.8-6.6 -1.2-1.3-3.1-2-5.6-2l-8 0 0 17.8Zm8.1 8.5l-8.1 0 0 14.3 -10 0 0-49.3 18.1 0c11.7 0 17.5 5.7 17.5 17.1 0 5.7-1.5 10.2-4.5 13.2 -3 3.1-7.3 4.6-13.1 4.6" class="a"/><path d="M1 121l120 0 0-120 -120 0 0 120Zm121 1l-122 0 0-122 122 0 0 122Z" style="fill:#fff;stroke-width:1px;stroke:#fff"/><defs><linearGradient x2="1" gradientUnits="userSpaceOnUse" gradientTransform="matrix(0,106.654,-106.654,0,62,-31.6095)"><stop offset="0" stop-color="#fff"/><stop offset="1" stop-color="#000"/></linearGradient></defs></svg>
