<?xml version="1.0" encoding="utf-8"?>
<!-- Generator: Adobe Illustrator 25.1.0, SVG Export Plug-In . SVG Version: 6.00 Build 0)  -->
<svg version="1.1" id="OutLine" xmlns="http://www.w3.org/2000/svg" xmlns:xlink="http://www.w3.org/1999/xlink" x="0px" y="0px"
	 viewBox="0 0 512 512" style="enable-background:new 0 0 512 512;" xml:space="preserve">
<style type="text/css">
	.st0{fill:#FFFFFF;}
</style>
<path class="st0" d="M349.7,18.3c-1.5-1.5-3.5-2.3-5.7-2.3H120c-30.9,0-56,25.1-56,56v368c0,30.9,25.1,56,56,56h272
	c30.9,0,56-25.1,56-56V120c0-2.1-0.8-4.2-2.3-5.7L349.7,18.3z M352,43.3l68.7,68.7H392c-22.1,0-40-17.9-40-40V43.3z M120,32h216v40
	c0,30.9,25.1,56,56,56h40v224H80V72C80,49.9,97.9,32,120,32z M392,480H120c-22.1,0-40-17.9-40-40v-72h352v72
	C432,462.1,414.1,480,392,480z"/>
<path class="st0" d="M256,400h16c4.4,0,8-3.6,8-8s-3.6-8-8-8h-16c-13.3,0-24,10.7-24,24s10.7,24,24,24c4.4,0,8,3.6,8,8s-3.6,8-8,8
	h-16c-4.4,0-8,3.6-8,8s3.6,8,8,8h16c13.3,0,24-10.7,24-24s-10.7-24-24-24c-4.4,0-8-3.6-8-8S251.6,400,256,400z"/>
<path class="st0" d="M192,384h-16c-4.4,0-8,3.6-8,8v64c0,4.4,3.6,8,8,8s8-3.6,8-8v-24h8c13.3,0,24-10.7,24-24S205.3,384,192,384z
	 M192,416h-8v-16h8c4.4,0,8,3.6,8,8S196.4,416,192,416z"/>
<path class="st0" d="M304,384c-4.4,0-8,3.6-8,8v64c0,4.4,3.6,8,8,8c22.1,0,40-17.9,40-40S326.1,384,304,384z M312,446.6v-45.3
	c12.5,4.4,19,18.1,14.6,30.6C324.2,438.8,318.8,444.2,312,446.6z"/>
<path class="st0" d="M374.7,179.6l-32-48c-1.5-2.2-4-3.6-6.7-3.6H176c-2.7,0-5.2,1.3-6.7,3.6l-32,48c-2.1,3.2-1.7,7.4,1,10.1
	l112,112c3.1,3.1,8.2,3.1,11.3,0c0,0,0,0,0,0l112-112C376.4,187,376.8,182.7,374.7,179.6z M353.1,176h-44.1l-16-32h38.8L353.1,176z
	 M202.7,192l29.6,69l-69-69H202.7z M291.9,192L256,275.7L220.1,192H291.9z M220.9,176l16-32h38.1l16,32H220.9z M309.3,192h39.4
	l-69,69L309.3,192z M180.3,144h38.8l-16,32h-44.1L180.3,144z"/>
</svg>
