<svg xmlns="http://www.w3.org/2000/svg" width="100" height="100" viewBox="0 0 122 122"><style>.a{fill:#fff;}</style><rect x="0.5" y="0.5" width="121" height="121" fill="#15a0ff"/><g opacity="0.1"><rect x="1.5" y="1.5" width="121" height="121" fill="url(#_Linear1)"/></g><path d="M54.3 52.9c1.5-1.9 2.3-4.4 2.3-7.4 0-3.1-0.8-5.5-2.4-7.3 -1.6-1.8-3.9-2.7-6.9-2.7l-11.9 0 0 20.4 12.1 0c3.1 0 5.4-0.9 6.9-2.8m-18.9 13.9l0 21.5 -13 0 0-64.1 24.9 0c15.1 0 22.6 7 22.6 21.1 0 8.4-3.1 14.5-9.4 18.5l9.1 24.5 -14.2 0 -7.4-21.5 -12.5 0Z" class="a"/><path d="M86.7 51c2.5 0 5.7 0.4 9.6 1.2l1.9 0.4 -0.3 7.7c-3.8-0.4-6.6-0.6-8.4-0.6 -3.3 0-5.5 0.7-6.6 2.1 -1.1 1.4-1.6 4.1-1.6 8 0 3.9 0.5 6.7 1.6 8.1 1.1 1.5 3.3 2.2 6.7 2.2l8.4-0.6 0.3 7.7c-5.2 1-9.1 1.5-11.8 1.5 -5.3 0-9.2-1.5-11.5-4.5 -2.3-3-3.5-7.8-3.5-14.5 0-6.6 1.2-11.4 3.6-14.4 2.4-3 6.3-4.4 11.6-4.4" class="a"/><path d="M1 121l120 0 0-120 -120 0 0 120Zm121 1l-122 0 0-122 122 0 0 122Z" style="fill:#fff;stroke-width:1px;stroke:#fff"/><defs><linearGradient x2="1" gradientUnits="userSpaceOnUse" gradientTransform="matrix(0,106.654,-106.654,0,62,-31.6095)"><stop offset="0" stop-color="#fff"/><stop offset="1" stop-color="#000"/></linearGradient></defs></svg>
