<?xml version="1.0" encoding="utf-8"?>
<!-- Generator: Adobe Illustrator 25.1.0, SVG Export Plug-In . SVG Version: 6.00 Build 0)  -->
<svg version="1.1" id="Layer_1" xmlns="http://www.w3.org/2000/svg" xmlns:xlink="http://www.w3.org/1999/xlink" x="0px" y="0px"
	 viewBox="0 0 512 512" style="enable-background:new 0 0 512 512;" xml:space="preserve">
<style type="text/css">
	.st0{fill:#FFFFFF;}
</style>
<g>
	<path class="st0" d="M343.9,190.6c0-8.8-7.1-15.9-15.9-15.9h-46.2c-4.1,0-7.5,3.4-7.5,7.5s3.4,7.5,7.5,7.5H328
		c0.5,0,0.9,0.4,0.9,0.9v46.2c0,4.1,3.4,7.5,7.5,7.5s7.5-3.4,7.5-7.5V190.6z"/>
	<path class="st0" d="M127.6,368.9c0,8.8,7.1,15.9,15.9,15.9h46.1c4.1,0,7.5-3.4,7.5-7.5s-3.4-7.5-7.5-7.5h-46.1
		c-0.5,0-0.9-0.4-0.9-0.9v-46.2c0-4.1-3.4-7.5-7.5-7.5s-7.5,3.4-7.5,7.5V368.9z"/>
	<path class="st0" d="M135.1,244.3c4.1,0,7.5-3.4,7.5-7.5v-46.2c0-0.5,0.4-0.9,0.9-0.9h46.1c4.1,0,7.5-3.4,7.5-7.5s-3.4-7.5-7.5-7.5
		h-46.1c-8.8,0-15.9,7.1-15.9,15.9v46.2C127.6,241,131,244.3,135.1,244.3z"/>
	<path class="st0" d="M336.4,315.2c-4.1,0-7.5,3.4-7.5,7.5v46.2c0,0.5-0.4,0.9-0.9,0.9h-46.2c-4.1,0-7.5,3.4-7.5,7.5
		s3.4,7.5,7.5,7.5H328c8.8,0,15.9-7.1,15.9-15.9v-46.2C343.9,318.6,340.5,315.2,336.4,315.2z"/>
	<path class="st0" d="M280.1,85.2c0-4.1-3.4-7.5-7.5-7.5H54.9c-4.1,0-7.5,3.4-7.5,7.5s3.4,7.5,7.5,7.5h217.7
		C276.7,92.7,280.1,89.4,280.1,85.2L280.1,85.2z"/>
	<path class="st0" d="M335,90.6L335,90.6c3-3,2.9-7.7,0-10.6s-7.7-2.9-10.6,0c-2.9,2.9-2.9,7.7,0,10.6c1.5,1.5,3.4,2.2,5.3,2.2
		S333.5,92,335,90.6L335,90.6z"/>
	<path class="st0" d="M372.8,90.6L372.8,90.6c3-3,2.9-7.7,0-10.6s-7.7-2.9-10.6,0c-2.9,2.9-2.9,7.7,0,10.6c1.5,1.5,3.4,2.2,5.3,2.2
		S371.3,92,372.8,90.6L372.8,90.6z"/>
	<path class="st0" d="M410.6,90.6L410.6,90.6c3-3,2.9-7.7,0-10.6s-7.7-2.9-10.6,0c-2.9,2.9-2.9,7.7,0,10.6c1.5,1.5,3.4,2.2,5.3,2.2
		S409.1,92,410.6,90.6L410.6,90.6z"/>
	<path class="st0" d="M471.5,337.4V47.6c0-7.5-6.1-13.6-13.6-13.6H13.6C6.1,34,0,40.1,0,47.6v376.8c0,7.5,6.1,13.6,13.6,13.6h205.7
		c4.1,0,7.5-3.4,7.5-7.5s-3.4-7.5-7.5-7.5H15V136.5h204.7c4,0,7.3-3.4,7.3-7.5c0-4.1-3.3-7.5-7.3-7.5H15V49h441.5v72.5H252.1
		c-4,0-7.3,3.4-7.3,7.5c0,4.1,3.3,7.5,7.3,7.5h204.4v195.1c-6-1.6-12.3-2.4-18.9-2.4c-41,0-74.3,33.4-74.3,74.4
		c0,6.7,0.9,13.2,2.6,19.4H254c-4.1,0-7.5,3.4-7.5,7.5s3.4,7.5,7.5,7.5h117.8c12.4,23.7,37.3,40,65.9,40c41,0,74.3-33.4,74.3-74.4
		C512,374.8,495.5,349.8,471.5,337.4z M437.7,463c-32.7,0-59.3-26.6-59.3-59.4c0-32.8,26.6-59.4,59.3-59.4s59.3,26.6,59.3,59.4
		C497,436.4,470.4,463,437.7,463z"/>
	<path class="st0" d="M467.3,378.6c-3.1-2.7-7.9-2.3-10.6,0.8l-28.2,32.8l-10.8-9.3c-3.2-2.7-7.9-2.3-10.6,0.8
		c-2.7,3.1-2.3,7.9,0.8,10.6l16.5,14.1c1.4,1.2,3.1,1.8,4.9,1.8c2.1,0,4.2-0.9,5.7-2.6l33.1-38.5
		C470.8,386.1,470.5,381.3,467.3,378.6L467.3,378.6z"/>
	<path class="st0" d="M304.1,311.8l0-67.6c0-0.4,0-0.7-0.1-1.1c0,0,0-0.1,0-0.1c0-0.2-0.1-0.4-0.1-0.6c-0.5-2.4-2.1-4.5-4.5-5.9
		l-57.8-32.2c-3.5-2-8-2-11.5,0l-57.8,32.2c-3.2,2.1-4.8,4.7-4.8,7.9v66.5l0,0.9c0,4.8,0.4,8.8,6.4,12.1
		c18.7,10.4,37.4,20.9,56.1,31.3c0,0,0.1,0,0.1,0.1c1.7,0.9,3.7,1.4,5.7,1.4s3.9-0.5,5.6-1.4c0,0,0.1,0,0.1-0.1
		c18.7-10.4,37.4-20.9,56.2-31.3C303.7,320.6,304.1,316.6,304.1,311.8L304.1,311.8z M228.2,337.1c-15.3-8.5-30.6-17-45.8-25.5
		l0-53.9l45.8,25.5L228.2,337.1L228.2,337.1z M235.8,270.3l-46.6-26l46.6-26l46.6,26L235.8,270.3z M243.2,337.1v-53.9l45.9-25.6
		v53.2l0,0.7C273.8,320.1,258.5,328.6,243.2,337.1z"/>
</g>
</svg>
